<svg width="32" height="34" viewBox="0 0 32 34" fill="none" xmlns="http://www.w3.org/2000/svg">
<path d="M3.82832 8.18923L29.0289 8.18923L29.3598 8.18923C30.0682 8.18922 30.6424 7.61498 30.6424 6.90662L30.6424 6.81899C30.6424 6.10367 30.0573 5.52658 29.342 5.53651L21.6324 5.64356L11.0709 5.64356L3.29795 5.64363C2.59501 5.64364 2.02517 6.21348 2.02516 6.91642V6.91642C2.02514 7.6194 2.59504 8.18928 3.29802 8.18925L3.82832 8.18923Z" fill="#0D0D0D"></path>
<path d="M3.82832 8.18923L29.0289 8.18923M3.82832 8.18923L6.72023 30.7787C6.80219 31.4189 7.34706 31.8984 7.99246 31.8984L25.4146 31.8984C26.0718 31.8984 26.6226 31.4017 26.6904 30.7481L29.0289 8.18923M3.82832 8.18923L3.29802 8.18925C2.59504 8.18928 2.02514 7.6194 2.02516 6.91642V6.91642C2.02517 6.21348 2.59501 5.64364 3.29795 5.64363L11.0709 5.64356M29.0289 8.18923L29.3598 8.18923C30.0682 8.18922 30.6424 7.61498 30.6424 6.90662L30.6424 6.81899C30.6424 6.10367 30.0573 5.52658 29.342 5.53651L21.6324 5.64356M11.0709 5.64356L12.524 2.37849C12.6064 2.19334 12.79 2.07404 12.9927 2.07404L19.866 2.07421C20.0763 2.07422 20.2652 2.20246 20.3428 2.39782L21.6324 5.64356M11.0709 5.64356L21.6324 5.64356M10.6399 10.6888L11.7152 29.6292M22.4408 10.6888L21.4738 29.6292M16.7519 10.6888L16.7519 29.6292" stroke="black" stroke-width="2.36019"></path>
</svg>
