<svg width="84" height="84" viewBox="0 0 84 84" fill="none" xmlns="http://www.w3.org/2000/svg">
<mask id="path-1-inside-1_951_672" fill="white">
<path fill-rule="evenodd" clip-rule="evenodd" d="M8.85437 50.2393L42.8966 83.8071L43.2522 83.4026L43.7589 83.91L76.8678 46.8246C86.5938 35.9305 86.1118 18.7227 75.7914 8.39002C66.3827 -1.02977 52.4244 -2.17344 41.9575 4.73381C31.0622 -2.59167 16.4784 -0.928571 7.4004 9.39581C-2.85008 21.0536 -2.1991 39.3399 8.85437 50.2393Z"></path>
</mask>
<path fill-rule="evenodd" clip-rule="evenodd" d="M8.85437 50.2393L42.8966 83.8071L43.2522 83.4026L43.7589 83.91L76.8678 46.8246C86.5938 35.9305 86.1118 18.7227 75.7914 8.39002C66.3827 -1.02977 52.4244 -2.17344 41.9575 4.73381C31.0622 -2.59167 16.4784 -0.928571 7.4004 9.39581C-2.85008 21.0536 -2.1991 39.3399 8.85437 50.2393Z" fill="white"></path>
<path d="M42.8966 83.8071L38.7517 88.0105L43.2024 92.3992L47.3298 87.7051L42.8966 83.8071ZM8.85437 50.2393L4.70952 54.4427L4.70952 54.4427L8.85437 50.2393ZM43.2522 83.4026L47.4289 79.2309L42.9779 74.7746L38.8189 79.5046L43.2522 83.4026ZM43.7589 83.91L39.5822 88.0817L43.9996 92.5044L48.1626 87.8414L43.7589 83.91ZM76.8678 46.8246L81.2714 50.7561L81.2714 50.7561L76.8678 46.8246ZM75.7914 8.39002L79.9681 4.21824L79.9681 4.21824L75.7914 8.39002ZM41.9575 4.73381L38.6637 9.63274L41.9269 11.8268L45.209 9.66093L41.9575 4.73381ZM7.4004 9.39581L11.8336 13.2939L11.8336 13.2939L7.4004 9.39581ZM47.0414 79.6037L12.9992 46.0359L4.70952 54.4427L38.7517 88.0105L47.0414 79.6037ZM38.8189 79.5046L38.4633 79.909L47.3298 87.7051L47.6854 87.3007L38.8189 79.5046ZM47.9356 79.7382L47.4289 79.2309L39.0755 87.5744L39.5822 88.0817L47.9356 79.7382ZM72.4641 42.8931L39.3553 79.9785L48.1626 87.8414L81.2714 50.7561L72.4641 42.8931ZM71.6146 12.5618C79.7237 20.6805 80.1061 34.3333 72.4641 42.8931L81.2714 50.7561C93.0814 37.5276 92.4999 16.7649 79.9681 4.21824L71.6146 12.5618ZM45.209 9.66093C53.3453 4.29164 64.1971 5.13545 71.6146 12.5618L79.9681 4.21824C68.5683 -7.19499 51.5035 -8.63852 38.706 -0.193311L45.209 9.66093ZM11.8336 13.2939C18.9476 5.20319 30.2228 3.9575 38.6637 9.63274L45.2513 -0.165116C31.9016 -9.14083 14.0092 -7.06033 2.96715 5.49774L11.8336 13.2939ZM12.9992 46.0359C4.17399 37.3336 3.64955 22.6016 11.8336 13.2939L2.96715 5.49774C-9.34971 19.5056 -8.5722 41.3461 4.70952 54.4427L12.9992 46.0359Z" fill="black" mask="url('#path-1-inside-1_951_672')"></path>
</svg>
